PathFileType	4	(X/Y/Z)	C:/Users/beibeiliu/ov580/test_trc/User3\sequence.27_training_dense_right.trc
DataRate	CameraRate	NumFrames	NumMarkers	Units	OrigDataRate	OrigDataStartFrame	OrigNumFrames
120	120	20	19	mm	120	70	276
Frame#	Time	ThumbCMC			ThumbMCP			ThumbIP			ThumbTip			IndexMCP			IndexPIP			IndexTip			MiddleMCP			MiddlePIP			MiddleTip			RingMCP			RingPIP			RingTip			PinkyMCP			PinkyPIP			PinkyTip			BackHand1			BackHand2			BackHand3	
		X0	Y0	Z0	X1	Y1	Z1	X2	Y2	Z2	X3	Y3	Z3	X4	Y4	Z4	X5	Y5	Z5	X6	Y6	Z6	X7	Y7	Z7	X8	Y8	Z8	X9	Y9	Z9	X10	Y10	Z10	X11	Y11	Z11	X12	Y12	Z12	X13	Y13	Z13	X14	Y14	Z14	X15	Y15	Z15	X16	Y16	Z16	X17	Y17	Z17	X18	Y18	Z18	
69	0.575	165.149	-7.74363	15.0504	156.914	-16.0452	-15.6085	170.374	-22.1922	-47.8305	191	-31.1719	-54.6908	189.678	33.0904	-45.1544	192.686	38.1407	-68.1593	196.178	42.6806	-91.6532	210.025	29.069	-49.498	209.25	32.274	-74.7173	214.919	35.1873	-105.67	221.095	-3.43505	-45.1726	206.512	-28.2488	-56.08	197.111	-39.1969	-23.3736	226.42	-21.1723	-36.4566	212.744	-43.2089	-33.6322	201.418	-39.6332	-6.16381	227.085	11.0367	8.32587	219.31	0.607637	41.2495	190.492	15.2699	25.103	
70	0.583333	160.121	-12.8509	18.1156	155.033	-18.8603	-16.8548	164.883	-22.8067	-48.4306	191.455	-26.8291	-56.3514	183.564	33.2397	-44.0631	182.261	40.0295	-67.0523	184.514	46.0078	-94.3356	203.912	31.298	-46.9114	198.186	35.6223	-71.1053	203.426	39.5226	-101.447	212.746	1.58836	-44.2179	203.986	-25.6274	-56.17	191.314	-37.0834	-25.7926	223.294	-15.4039	-36.577	207.89	-38.8281	-31.7772	197.161	-36.5787	-7.9241	219.293	14.1382	8.33366	215.372	3.64757	37.8847	185.262	17.5191	24.9142	
71	0.591667	155.875	-14.7177	17.4578	147.697	-22.2172	-16.3822	165.799	-23.2147	-45.1991	191.334	-26.0468	-56.0871	173.799	31.9263	-41.0916	177.514	37.7076	-67.7376	175.641	43.1976	-89.5798	192.06	32.6139	-49.1863	190.995	35.9485	-71.3668	191.176	40.5977	-105.847	207.94	1.54535	-45.2438	204.698	-26.1175	-52.9702	189.607	-36.7928	-21.1735	221.922	-13.1992	-32.7187	206.392	-35.1971	-34.331	197.126	-35.9061	-7.56069	213.598	16.7139	12.7813	209.304	2.96802	43.5257	178.054	12.3693	27.7887	
72	0.6	152.632	-17.0389	21.7311	146.702	-22.9754	-16.5087	161.537	-25.1989	-44.2756	186.47	-28.2122	-52.8055	170.366	28.3276	-38.6727	171.244	35.5226	-69.1372	173.025	38.5062	-93.2553	188.38	29.576	-48.5544	189.026	32.6327	-74.7721	185.009	34.7533	-103.936	203.488	1.20539	-43.5608	195.244	-29.1702	-52.0678	189.316	-38.4651	-19.8607	216.8	-12.4172	-32.3432	200.546	-37.1794	-30.361	194.106	-36.0643	-0.527285	208.808	16.4898	11.8739	208.757	5.95778	38.5463	172.535	14.8204	23.524	
73	0.608333	149.847	-15.1398	19.646	139.041	-26.3978	-13.8873	155.352	-30.4567	-41.0752	178.542	-33.1368	-51.7429	165.207	26.0125	-41.5201	161.642	30.9077	-68.7219	164.854	32.9401	-92.1819	183.288	25.3223	-49.664	182.641	25.3824	-73.9584	179.383	25.7068	-106.26	198.05	-3.51628	-43.7879	193.375	-36.1352	-50.7292	183.687	-42.3718	-18.6659	212.99	-19.4261	-32.5045	198.651	-44.0554	-27.458	188.781	-38.2756	2.66398	203.973	13.4576	7.41805	204.831	3.59941	39.9587	170.972	12.7019	25.8915	
74	0.616667	146.695	-16.361	22.6296	137.944	-27.5609	-10.9612	148.263	-36.2286	-36.8837	172.38	-41.5485	-47.3707	161.378	18.9243	-43.7207	159.107	22.228	-72.4557	162.86	19.9858	-95.3288	179.165	16.0782	-52.8754	178.992	14.3035	-79.7057	175.67	12.0549	-107.849	194.266	-12.4986	-44.1068	184.606	-46.0372	-45.3216	177.007	-49.744	-16.9531	206.906	-28.3148	-32.1476	188.709	-50.8372	-22.7419	181.674	-39.9043	4.18639	205.104	8.69757	4.08237	203.68	1.57942	38.9744	170.729	13.9245	20.9204	
75	0.625	141.664	-15.9127	24.326	128.461	-31.7063	-4.50224	137.312	-45.0055	-31.4563	163.108	-54.1442	-46.9584	157.128	8.919	-47.7181	153.914	7.84233	-73.7031	151.571	5.07315	-98.2566	172.787	4.48483	-51.4718	168.683	-0.434546	-81.5456	164.945	-8.30014	-113.008	186.581	-28.8823	-46.0539	174.423	-54.1333	-44.6187	168.294	-55.4309	-10.3687	199.93	-39.4989	-29.3923	182.93	-60.3839	-20.1364	175.905	-48.0449	9.64984	202.6	1.11265	2.41357	201.841	-2.54159	36.4233	167.989	12.8946	19.6289	
76	0.633333	137.752	-15.466	28.5472	122.945	-34.3797	-2.87309	129.818	-52.3006	-24.8938	149.247	-67.2761	-38.708	154.15	-2.38931	-44.7714	144.433	-5.42961	-72.291	144.998	-15.8242	-100.089	166.697	-8.67442	-54.0798	162.075	-17.4883	-80.7154	152.308	-28.2878	-106.796	176.804	-38.1132	-40.5821	162.532	-67.6664	-34.0977	158.385	-61.9322	-3.09116	188.813	-50.6663	-25.7402	170.959	-68.7469	-14.0681	164.442	-52.4994	13.9075	196.258	-7.34972	5.36032	202.467	-5.5487	31.9961	168.42	7.71683	22.4483	
77	0.641667	132.972	-14.3418	29.7784	117.045	-36.5978	7.8837	117.782	-57.659	-15.3777	136.411	-76.5941	-27.1381	142.681	-11.4853	-49.1818	136.143	-21.1634	-71.8455	133.787	-33.495	-94.4315	159.139	-23.0038	-54.252	147.965	-31.873	-76.4999	140.034	-49.2323	-102.634	167.135	-55.3718	-39.1862	148.672	-74.0403	-28.6283	145.463	-67.36	3.05372	180.122	-65.3278	-20.2019	159.928	-77.3384	-3.50538	159.497	-58.071	21.7487	191.496	-17.016	0.412131	198.971	-13.6255	29.4709	168.105	1.68298	17.1231	
78	0.65	130.582	-12.1563	33.2701	108.061	-35.4162	15.439	106.479	-62.8413	-10.1645	127.827	-80.1124	-15.4347	137.94	-21.805	-42.6787	125.399	-30.4073	-68.1089	119.946	-46.8632	-88.1781	151.284	-32.5052	-48.8455	140.517	-47.3653	-72.6931	123.714	-64.0049	-93.8816	156.179	-63.4392	-31.8709	138.422	-83.3973	-16.2092	138.713	-67.8181	12.6678	165.367	-74.8758	-15.0974	149.335	-83.7896	2.77777	147.331	-63.632	25.965	187.539	-22.9094	-0.198473	194.775	-13.9706	30.0685	165.364	-1.43498	14.2521	
79	0.658333	129.87	-10.2153	32.8241	104.038	-31.7425	18.1465	99.763	-56.9797	4.66529	114.874	-79.3384	-4.71924	128.606	-27.3407	-44.1498	118.4	-41.9279	-64.5413	103.672	-53.3444	-80.4326	141.994	-40.0999	-46.1771	127.446	-55.5282	-65.8151	103.397	-76.9603	-84.5401	145.329	-65.1473	-24.1042	123.109	-82.6334	-6.19015	130.803	-64.1463	22.0444	154.696	-80.9477	-8.47281	134.541	-81.0604	8.84863	141.63	-62.3793	34.9518	183.738	-30.3755	1.60331	192.303	-20.2303	26.8708	164.12	-3.4653	15.2276	
80	0.666667	132.642	-4.84229	33.7397	102.24	-27.3549	20.5191	92.5459	-53.4601	9.41439	99.893	-80.0549	3.55788	126.575	-33.3425	-40.7234	108.713	-43.5962	-58.0778	92.9216	-57.8019	-71.7587	135.183	-48.5178	-42.6522	116.942	-63.7942	-59.3987	88.7595	-78.5152	-69.7124	135.427	-68.8266	-17.4508	112.211	-78.3455	1.57305	120.942	-59.3644	29.4	143.062	-79.6233	-2.16235	124.458	-79.0035	20.6662	137.849	-56.9918	39.1337	179.275	-36.557	2.94842	191.293	-27.5601	28.4812	165.874	-6.28227	14.1977	
81	0.675	134.521	-1.56726	32.7616	102.193	-19.714	24.9691	86.3154	-44.802	15.3571	94.564	-70.2588	13.256	119.377	-31.9404	-38.0789	99.5781	-43.3814	-52.2854	79.8845	-56.6174	-64.6137	126.495	-54.1769	-40.0011	102.013	-66.451	-51.9932	73.0957	-75.6741	-59.2304	123.352	-70.5414	-10.7896	100.002	-70.1775	11.494	116.957	-53.988	36.6611	130.079	-79.7169	5.92512	114.745	-73.8003	28.2851	129.764	-52.6835	43.58	175.493	-43.4784	6.99116	191.934	-35.8117	30.7462	169.254	-13.1951	12.1344	
82	0.683333	136.597	3.84464	29.9564	103.094	-11.1518	25.5343	85.3013	-36.6998	18.5349	86.082	-62.4984	19.2323	114.696	-35.0662	-34.3614	94.2199	-40.9883	-46.367	73.7021	-50.8822	-53.3864	118.588	-51.0858	-33.8072	95.1124	-56.024	-45.1237	59.7093	-68.0175	-52.6876	112.005	-65.6472	-5.66066	92.0144	-59.1797	17.3871	108.827	-44.9576	38.1539	121.8	-75.4248	10.9052	105.918	-65.001	33.7612	124.609	-46.2542	45.3737	168.1	-51.8599	5.2926	187.04	-40.544	27.4824	167.526	-16.2262	8.77381	
83	0.691667	143.96	4.53083	30.1607	104.085	-2.65821	25.7879	83.2298	-23.385	22.1766	79.4628	-51.3812	23.4678	113.88	-30.7029	-31.1594	87.1319	-33.9175	-44.7212	63.2732	-39.126	-51.6682	113.157	-49.7141	-29.667	86.9246	-52.0535	-39.2242	54.5619	-54.9755	-45.8729	108.256	-57.3727	-2.37256	86.5439	-52.2956	18.6792	107.2	-31.4706	39.4385	109.443	-67.4463	16.9289	100.998	-50.5438	36.6331	123.252	-37.7476	46.2078	164.297	-55.1775	8.73914	185.393	-46.0964	33.6107	170.495	-19.0747	7.94918	
84	0.7	148.462	7.2654	28.514	111.043	3.05589	24.4751	82.7273	-14.461	21.4776	78.4782	-38.0659	26.2583	111.462	-22.9228	-33.6131	85.9317	-28.779	-41.3333	61.8089	-31.2	-48.6296	109.517	-42.4222	-26.792	79.6014	-44.545	-38.5311	48.8284	-46.3976	-43.5944	99.8931	-49.3991	-0.633653	83.2001	-42.2626	24.2717	106.431	-22.7353	38.8502	107.953	-62.4216	20.1213	96.8926	-43.8429	41.2628	122.656	-30.3106	45.4534	158.085	-51.4804	7.47082	180.443	-48.0649	31.4903	169.193	-22.3252	8.31472	
85	0.708333	152.981	7.79029	25.3778	115.982	11.0037	22.4469	89.0786	-5.87273	20.0042	74.9152	-26.1014	24.8382	114.945	-20.8355	-31.0479	89.4405	-22.1028	-42.8528	63.7075	-23.1687	-50.6215	105.563	-37.6698	-29.4386	82.2626	-38.9811	-36.4739	47.8274	-33.9511	-45.5062	96.9518	-45.9438	3.71475	82.3408	-28.4522	20.9267	110.015	-17.9848	40.9578	100.812	-51.4554	22.9935	96.0648	-32.3736	40.6467	126.537	-23.4802	43.6615	157.026	-51.8412	12.5216	178.858	-48.6137	37.0948	173.679	-24.2877	11.723	
86	0.716667	158.652	9.81547	22.4645	122.533	18.8885	19.814	90.2189	5.80568	14.7249	75.5454	-13.5197	21.7217	116.233	-18.8944	-35.0696	95.1267	-16.8289	-43.9585	66.0672	-17.5377	-53.8146	108.442	-36.4235	-29.2525	82.0343	-32.2472	-40.6551	50.9512	-22.2724	-50.0519	95.0155	-37.8901	1.73501	84.9195	-16.2204	19.8159	113.763	-7.26577	34.5233	100.279	-44.1929	21.6414	96.9609	-20.7742	36.348	124.225	-15.4358	44.4061	152.225	-52.7283	12.9405	176.907	-52.9088	35.5895	173.638	-26.9349	7.39194	
87	0.725	166.365	8.89171	22.8791	128.028	18.6911	14.0028	95.7818	12.3794	10.7565	79.2714	-9.53327	16.8059	121.192	-18.1413	-36.6235	100.809	-13.1828	-48.1371	78.6416	-8.31604	-61.1327	110.544	-31.704	-34.1582	88.7751	-23.7108	-45.8952	59.6032	-16.8921	-55.0863	98.5363	-31.6241	-3.10897	87.1674	-11.6244	17.0272	114.379	-3.52726	32.6228	98.8114	-39.8793	20.0813	97.7305	-16.3142	32.7935	126.671	-13.9383	44.7178	153.503	-54.9832	13.6889	172.958	-52.3544	35.3495	176.909	-28.1737	10.2776	
88	0.733333	172.885	7.15361	21.564	135.952	23.1598	11.2869	106.245	15.6066	7.45251	87.6702	-3.98698	13.0167	127.773	-18.1843	-38.5523	103.972	-13.2553	-54.0942	83.1532	-5.64424	-67.4993	113.87	-33.751	-35.7101	94.2548	-24.9083	-48.9485	66.7229	-11.5649	-63.6147	102.848	-26.2236	-8.36801	92.1054	-5.1037	10.9521	119.84	-3.06846	31.809	102.624	-36.9695	13.0265	98.3972	-12.4127	29.5082	127.964	-9.75606	41.7908	152.13	-52.2846	9.19608	173.526	-53.5194	32.1452	179.874	-30.8283	6.49368	
